<svg xmlns="http://www.w3.org/2000/svg" xmlns:xlink="http://www.w3.org/1999/xlink" width="2048" zoomAndPan="magnify" viewBox="0 0 1536 1535.999932" height="2048" preserveAspectRatio="xMidYMid meet" version="1.0"><defs><g/><clipPath id="695605b7aa"><rect x="0" width="1170" y="0" height="463"/></clipPath></defs><rect x="-153.6" width="1843.2" fill="#ffffff" y="-153.599993" height="1843.199919" fill-opacity="1"/><rect x="-153.6" width="1843.2" fill="#f6f4f0" y="-153.599993" height="1843.199919" fill-opacity="1"/><g transform="matrix(1, 0, 0, 1, 183, 501)"><g clip-path="url(#695605b7aa)"><g fill="#a20100" fill-opacity="1"><g transform="translate(1.162275, 319.275814)"><g><path d="M 204.75 63.90625 C 196.582031 63.90625 189.375 61.351562 183.125 56.25 C 176.875 51.15625 173.75 42.226562 173.75 29.46875 C 173.75 21.300781 175.726562 11.222656 179.6875 -0.765625 C 183.644531 -12.753906 188.679688 -25.128906 194.796875 -37.890625 C 184.085938 -28.191406 172.351562 -18.941406 159.59375 -10.140625 C 146.832031 -1.335938 133.4375 5.675781 119.40625 10.90625 C 105.375 16.132812 91.085938 18.367188 76.546875 17.609375 C 62.253906 16.835938 51.984375 11.988281 45.734375 3.0625 C 39.484375 -5.863281 36.359375 -16.582031 36.359375 -29.09375 C 36.609375 -41.84375 39.222656 -55.039062 44.203125 -68.6875 C 49.179688 -82.34375 55.625 -95.550781 63.53125 -108.3125 C 71.4375 -121.070312 79.472656 -132.296875 87.640625 -141.984375 C 69.273438 -150.148438 54.601562 -159.972656 43.625 -171.453125 C 38.78125 -176.554688 35.144531 -181.914062 32.71875 -187.53125 C 30.300781 -193.144531 29.09375 -198.503906 29.09375 -203.609375 C 29.09375 -211.515625 31.769531 -218.273438 37.125 -223.890625 C 42.476562 -229.503906 50.515625 -232.3125 61.234375 -232.3125 C 69.648438 -232.3125 79.21875 -230.269531 89.9375 -226.1875 C 93.257812 -225.164062 94.921875 -223.253906 94.921875 -220.453125 C 94.921875 -218.921875 94.34375 -217.515625 93.1875 -216.234375 C 92.039062 -214.960938 90.578125 -214.328125 88.796875 -214.328125 C 87.265625 -214.328125 86.113281 -214.582031 85.34375 -215.09375 C 76.414062 -218.40625 68.765625 -220.0625 62.390625 -220.0625 C 56.003906 -220.0625 51.21875 -218.59375 48.03125 -215.65625 C 44.84375 -212.726562 43.25 -209.09375 43.25 -204.75 C 43.25 -197.09375 47.710938 -188.289062 56.640625 -178.34375 C 65.566406 -168.394531 79.085938 -159.847656 97.203125 -152.703125 C 110.222656 -166.222656 124.894531 -178.597656 141.21875 -189.828125 C 157.550781 -201.054688 175.285156 -209.984375 194.421875 -216.609375 C 213.554688 -223.242188 233.710938 -226.5625 254.890625 -226.5625 C 256.929688 -226.5625 258.90625 -226.5625 260.8125 -226.5625 C 262.726562 -226.5625 264.582031 -226.4375 266.375 -226.1875 C 288.3125 -224.90625 304.570312 -219.863281 315.15625 -211.0625 C 325.75 -202.257812 331.046875 -192.375 331.046875 -181.40625 C 331.046875 -170.4375 325.6875 -159.53125 314.96875 -148.6875 C 304.257812 -137.84375 288.695312 -130.125 268.28125 -125.53125 C 264.96875 -124.769531 261.394531 -124.003906 257.5625 -123.234375 C 260.375 -122.210938 261.78125 -120.046875 261.78125 -116.734375 C 261.78125 -115.203125 261.394531 -113.671875 260.625 -112.140625 C 259.09375 -110.347656 256.347656 -106.898438 252.390625 -101.796875 C 248.441406 -96.703125 242.769531 -89.6875 235.375 -80.75 C 234.09375 -79.476562 232.941406 -78.078125 231.921875 -76.546875 C 224.523438 -65.066406 217.445312 -52.628906 210.6875 -39.234375 C 203.925781 -25.835938 198.375 -12.953125 194.03125 -0.578125 C 189.695312 11.796875 187.53125 21.941406 187.53125 29.859375 C 187.53125 37.765625 189.25 43.3125 192.6875 46.5 C 196.132812 49.6875 200.285156 51.28125 205.140625 51.28125 C 211.003906 51.28125 217.0625 49.617188 223.3125 46.296875 C 229.5625 42.984375 234.472656 39.285156 238.046875 35.203125 C 239.578125 33.421875 241.238281 32.53125 243.03125 32.53125 C 244.8125 32.53125 246.40625 33.164062 247.8125 34.4375 C 249.21875 35.71875 249.921875 37.25 249.921875 39.03125 C 249.921875 40.5625 249.410156 41.96875 248.390625 43.25 C 243.285156 49.375 236.710938 54.347656 228.671875 58.171875 C 220.640625 61.992188 212.664062 63.90625 204.75 63.90625 Z M 112.515625 -147.34375 C 119.660156 -145.5625 128.910156 -143.582031 140.265625 -141.40625 C 151.617188 -139.238281 164.117188 -137.390625 177.765625 -135.859375 C 191.421875 -134.328125 205.140625 -133.5625 218.921875 -133.5625 C 235.753906 -133.5625 251.0625 -135.09375 264.84375 -138.15625 C 282.957031 -142.5 296.160156 -148.367188 304.453125 -155.765625 C 312.742188 -163.160156 316.890625 -170.816406 316.890625 -178.734375 C 316.890625 -186.898438 312.421875 -194.296875 303.484375 -200.921875 C 294.554688 -207.554688 281.800781 -211.382812 265.21875 -212.40625 C 263.175781 -212.664062 261.132812 -212.796875 259.09375 -212.796875 C 257.050781 -212.796875 255.015625 -212.796875 252.984375 -212.796875 C 225.421875 -212.796875 199.519531 -206.671875 175.28125 -194.421875 C 151.039062 -182.171875 129.738281 -166.609375 111.375 -147.734375 Z M 50.140625 -29.09375 C 50.140625 -6.894531 60.726562 4.203125 81.90625 4.203125 C 95.425781 4.203125 108.882812 1.269531 122.28125 -4.59375 C 135.675781 -10.457031 148.492188 -18.046875 160.734375 -27.359375 C 172.984375 -36.671875 184.273438 -46.429688 194.609375 -56.640625 C 204.941406 -66.847656 213.8125 -76.414062 221.21875 -85.34375 C 226.0625 -93 230.84375 -99.953125 235.5625 -106.203125 C 240.28125 -112.453125 244.679688 -117.492188 248.765625 -121.328125 C 249.273438 -121.835938 249.660156 -122.21875 249.921875 -122.46875 C 239.960938 -121.195312 228.863281 -120.5625 216.625 -120.5625 C 197.488281 -120.5625 177.457031 -122.023438 156.53125 -124.953125 C 135.613281 -127.890625 117.242188 -131.910156 101.421875 -137.015625 C 93.003906 -127.578125 85.476562 -117.625 78.84375 -107.15625 C 69.90625 -92.875 62.882812 -78.90625 57.78125 -65.25 C 52.6875 -51.601562 50.140625 -39.550781 50.140625 -29.09375 Z M 50.140625 -29.09375 "/></g></g></g><g fill="#a20100" fill-opacity="1"><g transform="translate(250.674131, 319.275814)"><g><path d="M 21.4375 9.1875 C 19.394531 9.1875 17.476562 8.484375 15.6875 7.078125 C 13.90625 5.671875 13.015625 4.078125 13.015625 2.296875 C 13.015625 1.785156 13.078125 1.273438 13.203125 0.765625 C 13.328125 0.253906 13.519531 -0.253906 13.78125 -0.765625 C 18.882812 -11.734375 23.726562 -21.171875 28.3125 -29.078125 C 32.90625 -36.992188 36.609375 -43.757812 39.421875 -49.375 C 44.523438 -59.0625 48.160156 -67.09375 50.328125 -73.46875 C 52.492188 -79.851562 53.578125 -85.726562 53.578125 -91.09375 C 53.578125 -92.875 53.382812 -94.53125 53 -96.0625 C 52.625 -97.59375 52.4375 -99.25 52.4375 -101.03125 C 52.4375 -104.601562 53.519531 -107.410156 55.6875 -109.453125 C 57.851562 -111.492188 60.210938 -112.515625 62.765625 -112.515625 C 66.335938 -112.515625 68.632812 -110.472656 69.65625 -106.390625 C 70.414062 -103.328125 70.796875 -99.882812 70.796875 -96.0625 C 70.796875 -94.53125 70.734375 -92.867188 70.609375 -91.078125 C 70.484375 -89.296875 70.289062 -87.515625 70.03125 -85.734375 C 73.601562 -90.578125 76.921875 -94.910156 79.984375 -98.734375 C 83.046875 -102.566406 85.726562 -105.757812 88.03125 -108.3125 C 92.875 -113.414062 98.289062 -117.625 104.28125 -120.9375 C 110.28125 -124.257812 115.832031 -125.921875 120.9375 -125.921875 C 126.039062 -125.921875 130.25 -124.003906 133.5625 -120.171875 C 136.882812 -116.347656 138.546875 -109.84375 138.546875 -100.65625 C 138.546875 -94.28125 137.90625 -87.519531 136.625 -80.375 C 135.351562 -73.226562 133.695312 -65.957031 131.65625 -58.5625 C 139.5625 -67.226562 147.597656 -74.625 155.765625 -80.75 C 163.929688 -86.875 171.332031 -91.851562 177.96875 -95.6875 C 187.65625 -101.039062 194.671875 -103.71875 199.015625 -103.71875 C 203.859375 -103.71875 206.28125 -100.910156 206.28125 -95.296875 C 206.28125 -93.003906 205.894531 -90.070312 205.125 -86.5 C 204.363281 -82.925781 202.960938 -78.84375 200.921875 -74.25 L 185.625 -36.734375 C 184.601562 -33.929688 183.644531 -31.125 182.75 -28.3125 C 181.851562 -25.507812 181.40625 -23.085938 181.40625 -21.046875 C 181.40625 -17.472656 182.9375 -15.6875 186 -15.6875 C 188.550781 -15.6875 192.378906 -16.960938 197.484375 -19.515625 C 203.347656 -22.835938 208.957031 -27.113281 214.3125 -32.34375 C 219.675781 -37.570312 224.144531 -42.097656 227.71875 -45.921875 C 227.96875 -46.179688 229.175781 -47.457031 231.34375 -49.75 C 233.519531 -52.050781 235.691406 -54.347656 237.859375 -56.640625 C 240.023438 -58.941406 241.238281 -60.09375 241.5 -60.09375 C 242.519531 -61.363281 243.796875 -62 245.328125 -62 C 246.597656 -62 247.804688 -61.296875 248.953125 -59.890625 C 250.109375 -58.492188 250.6875 -56.773438 250.6875 -54.734375 C 250.6875 -52.429688 250.046875 -50.515625 248.765625 -48.984375 C 244.679688 -43.628906 239.382812 -37.757812 232.875 -31.375 C 226.375 -25 220.570312 -19.769531 215.46875 -15.6875 C 210.113281 -11.601562 204.117188 -7.648438 197.484375 -3.828125 C 190.847656 -0.00390625 184.851562 1.90625 179.5 1.90625 C 174.90625 1.90625 171.203125 0.695312 168.390625 -1.71875 C 165.585938 -4.144531 164.441406 -8.929688 164.953125 -16.078125 C 165.460938 -20.160156 166.863281 -25.453125 169.15625 -31.953125 C 171.457031 -38.460938 174.070312 -45.289062 177 -52.4375 C 179.9375 -59.582031 182.679688 -66.34375 185.234375 -72.71875 C 187.785156 -79.09375 189.570312 -84.195312 190.59375 -88.03125 C 181.15625 -82.664062 170.3125 -75.328125 158.0625 -66.015625 C 145.8125 -56.703125 133.691406 -44.394531 121.703125 -29.09375 C 120.429688 -25.769531 119.09375 -22.515625 117.6875 -19.328125 C 116.28125 -16.140625 114.8125 -12.882812 113.28125 -9.5625 C 112.257812 -7.007812 110.21875 -5.734375 107.15625 -5.734375 C 105.113281 -5.734375 103.328125 -6.625 101.796875 -8.40625 C 100.265625 -10.195312 100.007812 -12.367188 101.03125 -14.921875 C 107.925781 -30.484375 113.414062 -45.535156 117.5 -60.078125 C 121.582031 -74.628906 123.625 -87.769531 123.625 -99.5 C 123.625 -107.925781 121.453125 -112.140625 117.109375 -112.140625 C 114.554688 -112.140625 111.554688 -110.863281 108.109375 -108.3125 C 104.671875 -105.757812 101.289062 -102.695312 97.96875 -99.125 C 93.894531 -94.789062 88.09375 -88.09375 80.5625 -79.03125 C 73.03125 -69.96875 65.441406 -60.335938 57.796875 -50.140625 L 56.265625 -47.078125 C 52.941406 -40.179688 49.109375 -32.96875 44.765625 -25.4375 C 40.429688 -17.914062 35.84375 -8.671875 31 2.296875 C 29.976562 4.847656 28.570312 6.632812 26.78125 7.65625 C 25 8.675781 23.21875 9.1875 21.4375 9.1875 Z M 21.4375 9.1875 "/></g></g></g><g fill="#a20100" fill-opacity="1"><g transform="translate(466.126826, 319.275814)"><g><path d="M 42.859375 6.5 C 34.191406 6.5 28.070312 4.015625 24.5 -0.953125 C 20.925781 -5.929688 19.140625 -12.117188 19.140625 -19.515625 C 19.140625 -25.640625 20.09375 -32.335938 22 -39.609375 C 23.914062 -46.878906 26.40625 -54.085938 29.46875 -61.234375 C 29.726562 -71.179688 32.472656 -81.003906 37.703125 -90.703125 C 42.929688 -100.398438 50.070312 -108.4375 59.125 -114.8125 C 68.1875 -121.195312 78.84375 -124.390625 91.09375 -124.390625 C 103.082031 -124.390625 111.4375 -120.941406 116.15625 -114.046875 C 120.875 -107.160156 123.234375 -99 123.234375 -89.5625 C 123.234375 -83.945312 122.59375 -78.265625 121.3125 -72.515625 C 120.039062 -66.773438 118.382812 -61.359375 116.34375 -56.265625 C 114.300781 -51.160156 111.75 -45.988281 108.6875 -40.75 C 105.625 -35.519531 102.179688 -30.359375 98.359375 -25.265625 C 106.015625 -26.535156 112.710938 -29.019531 118.453125 -32.71875 C 124.191406 -36.414062 129.992188 -41.582031 135.859375 -48.21875 C 141.734375 -54.851562 148.625 -63.273438 156.53125 -73.484375 C 158.0625 -75.265625 159.71875 -76.15625 161.5 -76.15625 C 163.539062 -76.15625 165.265625 -75.515625 166.671875 -74.234375 C 168.078125 -72.960938 168.78125 -71.304688 168.78125 -69.265625 C 168.78125 -67.734375 168.269531 -66.332031 167.25 -65.0625 C 159.851562 -54.851562 152.390625 -45.664062 144.859375 -37.5 C 137.328125 -29.34375 128.84375 -22.96875 119.40625 -18.375 C 109.96875 -13.78125 98.613281 -11.484375 85.34375 -11.484375 C 79.21875 -6.117188 72.582031 -1.78125 65.4375 1.53125 C 58.300781 4.84375 50.773438 6.5 42.859375 6.5 Z M 65.0625 -92.625 C 62 -90.320312 58.296875 -85.722656 53.953125 -78.828125 C 49.617188 -71.941406 45.664062 -64.421875 42.09375 -56.265625 C 42.601562 -48.347656 45.859375 -41.265625 51.859375 -35.015625 C 57.859375 -28.765625 67.109375 -25.257812 79.609375 -24.5 C 88.796875 -33.425781 96.191406 -43.945312 101.796875 -56.0625 C 107.410156 -68.1875 110.21875 -79.097656 110.21875 -88.796875 C 110.21875 -95.421875 108.6875 -100.773438 105.625 -104.859375 C 102.5625 -108.941406 97.71875 -110.984375 91.09375 -110.984375 C 86.5 -110.984375 82.03125 -110.21875 77.6875 -108.6875 C 73.351562 -107.15625 69.398438 -105.113281 65.828125 -102.5625 C 67.097656 -101.289062 67.734375 -99.757812 67.734375 -97.96875 C 67.734375 -95.9375 66.84375 -94.15625 65.0625 -92.625 Z M 32.53125 -20.28125 C 32.53125 -16.195312 33.359375 -12.941406 35.015625 -10.515625 C 36.671875 -8.097656 39.285156 -6.890625 42.859375 -6.890625 C 50.265625 -6.890625 57.789062 -9.1875 65.4375 -13.78125 C 58.039062 -15.5625 51.789062 -18.429688 46.6875 -22.390625 C 41.582031 -26.347656 37.628906 -30.875 34.828125 -35.96875 C 33.296875 -29.851562 32.53125 -24.625 32.53125 -20.28125 Z M 32.53125 -20.28125 "/></g></g></g><g fill="#a20100" fill-opacity="1"><g transform="translate(587.438559, 319.275814)"><g><path d="M 89.171875 -2.296875 C 84.578125 -2.296875 80.8125 -3.570312 77.875 -6.125 C 74.945312 -8.675781 73.484375 -12.25 73.484375 -16.84375 C 73.484375 -26.539062 75.90625 -36.300781 80.75 -46.125 C 85.601562 -55.945312 91.15625 -65.640625 97.40625 -75.203125 C 103.65625 -84.773438 108.820312 -93.640625 112.90625 -101.796875 C 108.820312 -98.992188 104.226562 -96.953125 99.125 -95.671875 C 94.019531 -94.398438 89.046875 -93.765625 84.203125 -93.765625 C 77.304688 -93.765625 71.945312 -94.65625 68.125 -96.4375 C 63.28125 -88.019531 57.664062 -79.535156 51.28125 -70.984375 C 44.90625 -62.441406 38.71875 -54.722656 32.71875 -47.828125 C 26.726562 -40.941406 21.691406 -35.710938 17.609375 -32.140625 C 15.816406 -30.617188 14.03125 -29.859375 12.25 -29.859375 C 10.457031 -29.859375 8.921875 -30.492188 7.640625 -31.765625 C 6.367188 -33.035156 5.734375 -34.4375 5.734375 -35.96875 C 5.734375 -37.25 6.242188 -38.398438 7.265625 -39.421875 C 11.859375 -44.265625 17.28125 -50.515625 23.53125 -58.171875 C 29.78125 -65.828125 36.03125 -73.992188 42.28125 -82.671875 C 48.539062 -91.347656 53.710938 -99.382812 57.796875 -106.78125 C 57.535156 -111.882812 58.234375 -117.625 59.890625 -124 C 61.554688 -130.375 63.851562 -136.492188 66.78125 -142.359375 C 69.71875 -148.234375 72.972656 -153.144531 76.546875 -157.09375 C 80.117188 -161.050781 83.816406 -163.03125 87.640625 -163.03125 C 91.722656 -163.03125 93.765625 -160.609375 93.765625 -155.765625 C 93.765625 -151.679688 92.550781 -146.445312 90.125 -140.0625 C 87.707031 -133.6875 84.898438 -127.5 81.703125 -121.5 C 78.515625 -115.507812 75.773438 -110.601562 73.484375 -106.78125 C 76.796875 -105.757812 80.238281 -105.25 83.8125 -105.25 C 89.9375 -105.25 95.296875 -106.457031 99.890625 -108.875 C 104.484375 -111.300781 108.566406 -113.726562 112.140625 -116.15625 C 115.710938 -118.582031 118.773438 -119.796875 121.328125 -119.796875 C 124.640625 -119.796875 126.867188 -118.960938 128.015625 -117.296875 C 129.160156 -115.640625 129.734375 -113.535156 129.734375 -110.984375 C 129.734375 -106.140625 128.457031 -100.847656 125.90625 -95.109375 C 123.363281 -89.367188 121.453125 -85.734375 120.171875 -84.203125 C 118.390625 -81.390625 115.710938 -77.238281 112.140625 -71.75 C 108.566406 -66.269531 104.992188 -60.46875 101.421875 -54.34375 C 97.847656 -48.21875 94.914062 -42.347656 92.625 -36.734375 C 91.601562 -33.929688 90.644531 -31.0625 89.75 -28.125 C 88.851562 -25.195312 88.40625 -22.710938 88.40625 -20.671875 C 88.40625 -17.347656 89.8125 -15.6875 92.625 -15.6875 C 95.164062 -15.6875 98.863281 -16.960938 103.71875 -19.515625 C 109.84375 -22.835938 115.519531 -27.113281 120.75 -32.34375 C 125.976562 -37.570312 130.503906 -42.097656 134.328125 -45.921875 C 134.585938 -46.179688 135.800781 -47.457031 137.96875 -49.75 C 140.132812 -52.050781 142.300781 -54.347656 144.46875 -56.640625 C 146.644531 -58.941406 147.734375 -60.09375 147.734375 -60.09375 C 148.753906 -61.363281 150.03125 -62 151.5625 -62 C 152.832031 -62 154.039062 -61.296875 155.1875 -59.890625 C 156.34375 -58.492188 156.921875 -56.773438 156.921875 -54.734375 C 156.921875 -52.429688 156.28125 -50.515625 155 -48.984375 C 151.175781 -43.628906 145.945312 -37.757812 139.3125 -31.375 C 132.675781 -25 126.804688 -19.769531 121.703125 -15.6875 C 116.347656 -11.601562 110.925781 -8.347656 105.4375 -5.921875 C 99.945312 -3.503906 94.523438 -2.296875 89.171875 -2.296875 Z M 89.171875 -2.296875 "/></g></g></g><g fill="#a20100" fill-opacity="1"><g transform="translate(709.132999, 319.275814)"><g><path d="M 42.859375 6.5 C 34.191406 6.5 28.070312 4.015625 24.5 -0.953125 C 20.925781 -5.929688 19.140625 -12.117188 19.140625 -19.515625 C 19.140625 -25.640625 20.09375 -32.335938 22 -39.609375 C 23.914062 -46.878906 26.40625 -54.085938 29.46875 -61.234375 C 29.726562 -71.179688 32.472656 -81.003906 37.703125 -90.703125 C 42.929688 -100.398438 50.070312 -108.4375 59.125 -114.8125 C 68.1875 -121.195312 78.84375 -124.390625 91.09375 -124.390625 C 103.082031 -124.390625 111.4375 -120.941406 116.15625 -114.046875 C 120.875 -107.160156 123.234375 -99 123.234375 -89.5625 C 123.234375 -83.945312 122.59375 -78.265625 121.3125 -72.515625 C 120.039062 -66.773438 118.382812 -61.359375 116.34375 -56.265625 C 114.300781 -51.160156 111.75 -45.988281 108.6875 -40.75 C 105.625 -35.519531 102.179688 -30.359375 98.359375 -25.265625 C 106.015625 -26.535156 112.710938 -29.019531 118.453125 -32.71875 C 124.191406 -36.414062 129.992188 -41.582031 135.859375 -48.21875 C 141.734375 -54.851562 148.625 -63.273438 156.53125 -73.484375 C 158.0625 -75.265625 159.71875 -76.15625 161.5 -76.15625 C 163.539062 -76.15625 165.265625 -75.515625 166.671875 -74.234375 C 168.078125 -72.960938 168.78125 -71.304688 168.78125 -69.265625 C 168.78125 -67.734375 168.269531 -66.332031 167.25 -65.0625 C 159.851562 -54.851562 152.390625 -45.664062 144.859375 -37.5 C 137.328125 -29.34375 128.84375 -22.96875 119.40625 -18.375 C 109.96875 -13.78125 98.613281 -11.484375 85.34375 -11.484375 C 79.21875 -6.117188 72.582031 -1.78125 65.4375 1.53125 C 58.300781 4.84375 50.773438 6.5 42.859375 6.5 Z M 65.0625 -92.625 C 62 -90.320312 58.296875 -85.722656 53.953125 -78.828125 C 49.617188 -71.941406 45.664062 -64.421875 42.09375 -56.265625 C 42.601562 -48.347656 45.859375 -41.265625 51.859375 -35.015625 C 57.859375 -28.765625 67.109375 -25.257812 79.609375 -24.5 C 88.796875 -33.425781 96.191406 -43.945312 101.796875 -56.0625 C 107.410156 -68.1875 110.21875 -79.097656 110.21875 -88.796875 C 110.21875 -95.421875 108.6875 -100.773438 105.625 -104.859375 C 102.5625 -108.941406 97.71875 -110.984375 91.09375 -110.984375 C 86.5 -110.984375 82.03125 -110.21875 77.6875 -108.6875 C 73.351562 -107.15625 69.398438 -105.113281 65.828125 -102.5625 C 67.097656 -101.289062 67.734375 -99.757812 67.734375 -97.96875 C 67.734375 -95.9375 66.84375 -94.15625 65.0625 -92.625 Z M 32.53125 -20.28125 C 32.53125 -16.195312 33.359375 -12.941406 35.015625 -10.515625 C 36.671875 -8.097656 39.285156 -6.890625 42.859375 -6.890625 C 50.265625 -6.890625 57.789062 -9.1875 65.4375 -13.78125 C 58.039062 -15.5625 51.789062 -18.429688 46.6875 -22.390625 C 41.582031 -26.347656 37.628906 -30.875 34.828125 -35.96875 C 33.296875 -29.851562 32.53125 -24.625 32.53125 -20.28125 Z M 32.53125 -20.28125 "/></g></g></g><g fill="#a20100" fill-opacity="1"><g transform="translate(830.444732, 319.275814)"><g><path d="M 46.6875 12.625 C 37.25 12.625 30.101562 10.132812 25.25 5.15625 C 20.40625 0.1875 17.984375 -4.460938 17.984375 -8.796875 C 17.984375 -14.410156 20.789062 -17.21875 26.40625 -17.21875 C 27.6875 -17.21875 28.960938 -17.085938 30.234375 -16.828125 C 31.503906 -16.578125 32.90625 -16.070312 34.4375 -15.3125 C 39.800781 -12.757812 45.609375 -10.90625 51.859375 -9.75 C 58.109375 -8.601562 64.164062 -7.90625 70.03125 -7.65625 C 72.332031 -8.164062 74.503906 -11.484375 76.546875 -17.609375 C 78.585938 -23.734375 80.117188 -29.597656 81.140625 -35.203125 C 81.898438 -40.566406 82.28125 -46.054688 82.28125 -51.671875 C 82.28125 -59.828125 81.640625 -68.113281 80.359375 -76.53125 C 79.085938 -84.957031 77.941406 -93.378906 76.921875 -101.796875 C 70.035156 -92.617188 62.765625 -83.375 55.109375 -74.0625 C 47.453125 -64.75 40.304688 -56.265625 33.671875 -48.609375 C 27.046875 -40.953125 21.4375 -35.082031 16.84375 -31 C 15.820312 -29.976562 14.546875 -29.46875 13.015625 -29.46875 C 11.222656 -29.46875 9.6875 -30.164062 8.40625 -31.5625 C 7.132812 -32.96875 6.5 -34.566406 6.5 -36.359375 C 6.5 -38.648438 7.394531 -40.5625 9.1875 -42.09375 C 11.476562 -44.394531 15.175781 -48.351562 20.28125 -53.96875 C 25.382812 -59.582031 31.1875 -66.28125 37.6875 -74.0625 C 44.195312 -81.84375 50.769531 -90.003906 57.40625 -98.546875 C 64.039062 -107.097656 70.164062 -115.203125 75.78125 -122.859375 C 76.03125 -125.410156 76.28125 -127.894531 76.53125 -130.3125 C 76.789062 -132.738281 77.175781 -135.097656 77.6875 -137.390625 C 79.476562 -145.304688 82.859375 -151.367188 87.828125 -155.578125 C 92.804688 -159.785156 97.207031 -161.890625 101.03125 -161.890625 C 105.625 -161.890625 107.921875 -159.46875 107.921875 -154.625 C 107.921875 -151.050781 106.007812 -145.816406 102.1875 -138.921875 C 100.394531 -136.117188 98.476562 -133.125 96.4375 -129.9375 C 94.40625 -126.75 92.113281 -123.367188 89.5625 -119.796875 C 89.5625 -110.097656 90.453125 -100.082031 92.234375 -89.75 C 94.023438 -79.414062 95.046875 -71.695312 95.296875 -66.59375 C 95.554688 -64.039062 95.75 -61.488281 95.875 -58.9375 C 96 -56.382812 96.0625 -53.707031 96.0625 -50.90625 C 96.0625 -43.757812 95.488281 -36.613281 94.34375 -29.46875 C 93.195312 -22.320312 90.960938 -15.816406 87.640625 -9.953125 C 94.523438 -12.503906 101.664062 -15.882812 109.0625 -20.09375 C 116.46875 -24.300781 122.847656 -28.828125 128.203125 -33.671875 C 133.304688 -38.015625 138.023438 -42.609375 142.359375 -47.453125 C 146.703125 -52.304688 150.789062 -56.773438 154.625 -60.859375 C 155.644531 -62.128906 156.921875 -62.765625 158.453125 -62.765625 C 159.722656 -62.765625 160.929688 -62.0625 162.078125 -60.65625 C 163.222656 -59.257812 163.796875 -57.539062 163.796875 -55.5 C 163.796875 -53.195312 163.160156 -51.28125 161.890625 -49.75 C 158.066406 -44.394531 152.769531 -38.460938 146 -31.953125 C 139.238281 -25.453125 133.304688 -20.285156 128.203125 -16.453125 C 121.578125 -11.609375 113.414062 -7.269531 103.71875 -3.4375 C 94.019531 0.382812 84.066406 3.1875 73.859375 4.96875 C 68.753906 8.03125 62.757812 10.328125 55.875 11.859375 C 54.09375 12.117188 52.4375 12.3125 50.90625 12.4375 C 49.375 12.5625 47.96875 12.625 46.6875 12.625 Z M 46.6875 12.625 "/></g></g></g><g fill="#a20100" fill-opacity="1"><g transform="translate(958.644856, 319.275814)"><g><path d="M 32.90625 1.90625 C 25.769531 1.90625 20.476562 -0.195312 17.03125 -4.40625 C 13.582031 -8.613281 11.859375 -13.90625 11.859375 -20.28125 C 11.859375 -27.425781 13.960938 -35.78125 18.171875 -45.34375 C 22.390625 -54.914062 27.941406 -64.804688 34.828125 -75.015625 C 41.710938 -85.222656 49.300781 -94.726562 57.59375 -103.53125 C 65.882812 -112.332031 74.238281 -119.472656 82.65625 -124.953125 C 91.082031 -130.441406 98.867188 -133.1875 106.015625 -133.1875 C 110.859375 -133.1875 115.578125 -132.484375 120.171875 -131.078125 C 124.765625 -129.671875 128.523438 -126.925781 131.453125 -122.84375 C 134.390625 -118.769531 135.859375 -112.773438 135.859375 -104.859375 C 135.859375 -102.054688 135.09375 -100.015625 133.5625 -98.734375 C 132.03125 -97.460938 130.628906 -96.828125 129.359375 -96.828125 C 126.554688 -96.828125 125.15625 -97.847656 125.15625 -99.890625 C 123.875 -108.054688 121.253906 -113.414062 117.296875 -115.96875 C 113.347656 -118.519531 109.585938 -119.796875 106.015625 -119.796875 C 100.910156 -119.796875 94.910156 -117.242188 88.015625 -112.140625 C 81.128906 -107.035156 74.113281 -100.523438 66.96875 -92.609375 C 59.832031 -84.703125 53.132812 -76.21875 46.875 -67.15625 C 40.625 -58.101562 35.585938 -49.429688 31.765625 -41.140625 C 27.941406 -32.847656 26.03125 -26.023438 26.03125 -20.671875 C 26.03125 -18.117188 26.472656 -15.820312 27.359375 -13.78125 C 28.253906 -11.738281 29.722656 -10.71875 31.765625 -10.71875 C 35.585938 -10.71875 40.5625 -12.757812 46.6875 -16.84375 C 52.8125 -20.925781 59.378906 -26.21875 66.390625 -32.71875 C 73.410156 -39.226562 80.363281 -46.050781 87.25 -53.1875 C 94.144531 -60.332031 100.398438 -67.09375 106.015625 -73.46875 C 111.628906 -79.851562 115.96875 -84.960938 119.03125 -88.796875 C 120.5625 -91.085938 122.472656 -92.234375 124.765625 -92.234375 C 126.554688 -92.234375 128.210938 -91.59375 129.734375 -90.3125 C 131.265625 -89.039062 132.03125 -87.382812 132.03125 -85.34375 C 132.03125 -84.320312 131.648438 -83.175781 130.890625 -81.90625 C 129.097656 -79.09375 126.988281 -75.132812 124.5625 -70.03125 C 122.144531 -64.9375 119.722656 -59.453125 117.296875 -53.578125 C 114.878906 -47.710938 112.835938 -42.289062 111.171875 -37.3125 C 109.515625 -32.34375 108.6875 -28.582031 108.6875 -26.03125 C 108.6875 -23.476562 109.582031 -22.203125 111.375 -22.203125 C 112.644531 -22.203125 114.238281 -22.835938 116.15625 -24.109375 C 118.070312 -25.390625 119.796875 -26.539062 121.328125 -27.5625 C 127.441406 -32.65625 133.304688 -38.070312 138.921875 -43.8125 C 144.535156 -49.5625 149.640625 -54.988281 154.234375 -60.09375 C 155.253906 -61.363281 156.53125 -62 158.0625 -62 C 159.332031 -62 160.539062 -61.296875 161.6875 -59.890625 C 162.84375 -58.492188 163.421875 -56.773438 163.421875 -54.734375 C 163.421875 -52.429688 162.78125 -50.515625 161.5 -48.984375 C 157.425781 -43.628906 152.070312 -37.695312 145.4375 -31.1875 C 138.800781 -24.6875 132.929688 -19.519531 127.828125 -15.6875 C 124.515625 -13.394531 120.625 -11.160156 116.15625 -8.984375 C 111.6875 -6.816406 107.410156 -5.734375 103.328125 -5.734375 C 100.265625 -5.734375 97.710938 -6.691406 95.671875 -8.609375 C 93.640625 -10.523438 92.625 -13.90625 92.625 -18.75 C 92.625 -22.582031 93.257812 -26.921875 94.53125 -31.765625 C 95.800781 -36.609375 97.332031 -41.582031 99.125 -46.6875 C 91.976562 -39.03125 84.320312 -31.503906 76.15625 -24.109375 C 67.988281 -16.710938 60.140625 -10.523438 52.609375 -5.546875 C 45.085938 -0.578125 38.519531 1.90625 32.90625 1.90625 Z M 32.90625 1.90625 "/></g></g></g><g fill="#a20100" fill-opacity="1"><g transform="translate(1086.462324, 319.275814)"><g><path d="M 61.625 -5.734375 C 58.5625 -5.734375 56.007812 -6.816406 53.96875 -8.984375 C 51.925781 -11.160156 50.90625 -13.648438 50.90625 -16.453125 C 50.90625 -19.515625 51.925781 -22.003906 53.96875 -23.921875 C 56.007812 -25.835938 58.5625 -26.796875 61.625 -26.796875 C 64.675781 -26.796875 67.160156 -25.835938 69.078125 -23.921875 C 70.992188 -22.003906 71.953125 -19.515625 71.953125 -16.453125 C 71.953125 -13.648438 70.992188 -11.160156 69.078125 -8.984375 C 67.160156 -6.816406 64.675781 -5.734375 61.625 -5.734375 Z M 61.625 -5.734375 "/></g></g></g></g></g></svg>